<?xml version="1.0" encoding="utf-8"?>
<!-- Generator: Adobe Illustrator 16.0.0, SVG Export Plug-In . SVG Version: 6.00 Build 0)  -->
<!DOCTYPE svg PUBLIC "-//W3C//DTD SVG 1.1//EN" "http://www.w3.org/Graphics/SVG/1.1/DTD/svg11.dtd">
<svg version="1.1" id="Layer_1" xmlns="http://www.w3.org/2000/svg" xmlns:xlink="http://www.w3.org/1999/xlink" x="0px" y="0px"
	 width="37.858px" height="37px" viewBox="0 0 37.858 37" enable-background="new 0 0 37.858 37" xml:space="preserve">
<g>
	<path fill="#FFFFFF" d="M8.215,13.429c-1.143-1.572-1.286-3.286-1.286-3.286V0h-2h-2v10.143c0,0-0.143,1.714-1.286,3.286
		C0.5,15,0,16.428,0,18.5V37h4.929h4.929V18.5C9.858,16.428,9.358,15,8.215,13.429z"/>
	<path fill="#FFFFFF" d="M22.215,13.429c-1.143-1.572-1.285-3.286-1.285-3.286V0h-2h-2.001v10.143c0,0-0.143,1.714-1.286,3.286
		C14.5,15,14,16.428,14,18.5V37h4.93h4.928V18.5C23.857,16.428,23.358,15,22.215,13.429z"/>
	<path fill="#FFFFFF" d="M36.215,13.429c-1.143-1.572-1.285-3.286-1.285-3.286V0h-2h-2.001v10.143c0,0-0.143,1.714-1.286,3.286
		C28.5,15,28,16.428,28,18.5V37h4.93h4.928V18.5C37.857,16.428,37.358,15,36.215,13.429z"/>
</g>
</svg>
